<?xml version="1.0" encoding="UTF-8" standalone="no"?>
<!DOCTYPE svg PUBLIC "-//W3C//DTD SVG 1.0//EN"
"http://www.w3.org/TR/2001/REC-SVG-20010904/DTD/svg10.dtd">
<!-- Created with Sodipodi ("http://www.sodipodi.com/") -->
<svg
   xmlns="http://www.w3.org/2000/svg"
   xmlns:xlink="http://www.w3.org/1999/xlink"
   version="1.0"
   x="0"
   y="0"
   width="60"
   height="60"
   id="svg548">
  <defs
     id="defs550">
    <linearGradient
       x1="0"
       y1="0"
       x2="1"
       y2="0"
       id="linearGradient556"
       gradientUnits="objectBoundingBox"
       spreadMethod="pad">
      <stop
         style="stop-color:#ff0000;stop-opacity:1;"
         offset="0"
         id="stop557" />
      <stop
         style="stop-color:#ffff8d;stop-opacity:0;"
         offset="1"
         id="stop558" />
    </linearGradient>
    <linearGradient
       x1="0.98450798"
       y1="0.96875602"
       x2="-0.57364303"
       y2="-0.171875"
       id="linearGradient559"
       xlink:href="#linearGradient556" />
  </defs>
  <path
     d="M 1.028865 23.99648 C 1.510624 18.42523 21.7646 -0.155997 26.35401 1.525979 C 34.77787 2.875133 33.24293 12.48977 36.57278 13.67308 C 39.92537 14.2603 69.01875 17.44191 55.85879 48.65893 C 53.46454 54.25087 51.94379 55.29983 49.44123 57.13311 C 47.00601 58.78143 43.09602 58.8779 39.92552 55.3124 C 37.02936 51.00947 38.27988 46.76743 39.6231 43.20362 C 43.84999 32.53529 36.05048 32.40727 31.73642 30.15509 C 30.72812 33.8884 28.87019 42.69868 26.36542 42.57612 C 23.86063 42.45358 0.405225 35.12471 1.028865 23.99648 z "
     style="font-size:12;fill:#7e0000;fill-rule:evenodd;"
     id="path582" />
  <path
     d="M 4.612175 23.6407 C 4.769905 19.46667 21.93317 4.640965 25.69971 6.096892 C 29.46644 7.552896 27.55303 12.85851 29.16805 15.80547 C 65.85376 16.56439 56.28811 57.5538 44.40357 52.80007 C 37.8948 50.27578 48.98686 39.66178 43.82735 32.46884 C 39.45129 26.19341 27.89674 25.01374 27.65927 26.55734 C 27.18432 29.64459 26.6002 38.87531 24.57742 38.67948 C 22.55461 38.48365 3.730164 28.02613 4.612175 23.6407 z "
     style="font-size:12;fill:#ff1500;fill-rule:evenodd;"
     id="path581" />
  <path
     d="M 54.21087 41.70574 C 52.77465 32.53362 50.66047 27.15574 45.66317 23.37504 C 40.16435 19.00195 30.82968 18.33108 30.54762 17.5357 C 30.2656 16.74034 37.31755 18.85646 42.7645 20.48563 C 52.97659 23.49743 55.10559 35.37665 54.21087 41.70574 z "
     style="font-size:12;fill:#ffffff;fill-rule:evenodd;"
     id="path588" />
  <path
     d="M 12.93679 19.7236 C 14.09809 18.36876 22.27364 11.53838 24.50367 11.06304 C 26.73357 10.58784 25.2479 14.70468 25.2479 14.70468 C 25.2479 14.70468 13.85464 18.18673 12.93679 19.7236 z "
     style="font-size:12;fill:#ffffff;fill-rule:evenodd;"
     id="path589" />
  <path
     d="M 12.14637 35.68601 C 12.14637 35.68601 2.990594 31.86359 3.006064 31.98362 C 3.021534 32.10363 4.709805 30.05579 4.709805 30.05579 L 7.083035 30.48197 L 12.34424 32.48812 L 12.14637 35.68601 z "
     style="font-size:12;fill:none;fill-rule:evenodd;stroke-width:1;"
     id="path576" />
  <path
     d="M 4.723534 23.58873 C 3.755785 29.32422 24.85256 38.88336 24.85256 38.88336 C 26.78805 37.3539 27.94934 27.03003 29.88482 25.69174 C 33.36869 27.22121 44.2074 30.28013 44.78804 34.29497 C 45.3687 38.30981 42.46546 46.33949 42.07836 48.25131 C 41.30417 51.11907 43.8203 53.79562 46.33643 52.64853 C 48.85256 51.50143 49.23966 49.20723 49.23966 49.20723 C 49.23966 49.20723 46.52998 49.20724 46.14288 47.10422 C 45.75579 45.00121 51.36869 34.67734 48.46546 30.6625 C 45.56224 26.64766 33.94934 21.10337 26.78805 21.67691 L 23.88482 33.53023 C 23.88482 33.53023 20.9816 33.33907 4.723534 23.58873 z "
     style="font-size:12;fill:#cb0000;fill-rule:evenodd;stroke-width:1;"
     id="path615" />
</svg>
